HIERARCHY
ROOT hip
{
  OFFSET 184.647 81.0002 1.27926
  CHANNELS 6 Xposition Yposition Zposition Zrotation Xrotation Yrotation
  JOINT abdomen
  {
    OFFSET 0 20.6881 -0.73152
    CHANNELS 3 Zrotation Xrotation Yrotation
    JOINT chest
    {
      OFFSET 0 11.7043 -0.48768
      CHANNELS 3 Zrotation Xrotation Yrotation
      JOINT neck
      {
        OFFSET 0 22.1894 -2.19456
        CHANNELS 3 Zrotation Xrotation Yrotation
        JOINT head
        {
          OFFSET -0.24384 7.07133 1.2192
          CHANNELS 3 Zrotation Xrotation Yrotation
          JOINT leftEye
          {
            OFFSET 4.14528 8.04674 8.04672
            CHANNELS 3 Zrotation Xrotation Yrotation
            End Site
            {
              OFFSET 1 0 0
            }
          }
          JOINT rightEye
          {
            OFFSET -3.6576 8.04674 8.04672
            CHANNELS 3 Zrotation Xrotation Yrotation
            End Site
            {
              OFFSET 1 0 0
            }
          }
        }
      }
      JOINT rCollar
      {
        OFFSET -2.68224 19.2634 -4.8768
        CHANNELS 3 Zrotation Xrotation Yrotation
        JOINT rShldr
        {
          OFFSET -8.77824 -1.95073 1.46304
          CHANNELS 3 Zrotation Xrotation Yrotation
          JOINT rForeArm
          {
            OFFSET -28.1742 -1.7115 0.48768
            CHANNELS 3 Zrotation Xrotation Yrotation
            JOINT rHand
            {
              OFFSET -22.5879 0.773209 7.07136
              CHANNELS 3 Zrotation Xrotation Yrotation
              JOINT rThumb1
              {
                OFFSET -1.2192 -0.487915 3.41376
                CHANNELS 3 Zrotation Xrotation Yrotation
                JOINT rThumb2
                {
                  OFFSET -3.37035 -0.52449 3.41376
                  CHANNELS 3 Zrotation Xrotation Yrotation
                  End Site
                  {
                    OFFSET -1.78271 -1.18214 1.43049
                  }
                }
              }
              JOINT rIndex1
              {
                OFFSET -7.75947 0.938293 5.60832
                CHANNELS 3 Zrotation Xrotation Yrotation
                JOINT rIndex2
                {
                  OFFSET -2.54057 -0.884171 1.56538
                  CHANNELS 3 Zrotation Xrotation Yrotation
                  End Site
                  {
                    OFFSET -1.62519 -0.234802 1.16502
                  }
                }
              }
              JOINT rMid1
              {
                OFFSET -8.24714 1.18213 3.41376
                CHANNELS 3 Zrotation Xrotation Yrotation
                JOINT rMid2
                {
                  OFFSET -3.10165 -0.590103 1.0647
                  CHANNELS 3 Zrotation Xrotation Yrotation
                  End Site
                  {
                    OFFSET -2.48547 -0.328903 0.83742
                  }
                }
              }
              JOINT rRing1
              {
                OFFSET -8.82822 0.546677 1.51678
                CHANNELS 3 Zrotation Xrotation Yrotation
                JOINT rRing2
                {
                  OFFSET -2.60934 -0.819778 -0.0198488
                  CHANNELS 3 Zrotation Xrotation Yrotation
                  End Site
                  {
                    OFFSET -2.33842 -0.294052 0.168128
                  }
                }
              }
              JOINT rPinky1
              {
                OFFSET -8.27202 -0.0477905 -0.4584
                CHANNELS 3 Zrotation Xrotation Yrotation
                JOINT rPinky2
                {
                  OFFSET -1.82734 -0.647385 -0.700984
                  CHANNELS 3 Zrotation Xrotation Yrotation
                  End Site
                  {
                    OFFSET -1.69225 -0.51767 -0.607171
                  }
                }
              }
            }
          }
        }
      }
      JOINT lCollar
      {
        OFFSET 2.68224 19.2634 -4.8768
        CHANNELS 3 Zrotation Xrotation Yrotation
        JOINT lShldr
        {
          OFFSET 8.77824 -1.95073 1.46304
          CHANNELS 3 Zrotation Xrotation Yrotation
          JOINT lForeArm
          {
            OFFSET 28.1742 -1.7115 0.48768
            CHANNELS 3 Zrotation Xrotation Yrotation
            JOINT lHand
            {
              OFFSET 22.5879 0.773209 7.07136
              CHANNELS 3 Zrotation Xrotation Yrotation
              JOINT lThumb1
              {
                OFFSET 1.2192 -0.487915 3.41376
                CHANNELS 3 Zrotation Xrotation Yrotation
                JOINT lThumb2
                {
                  OFFSET 3.37035 -0.52449 3.41376
                  CHANNELS 3 Zrotation Xrotation Yrotation
                  End Site
                  {
                    OFFSET 1.78271 -1.18214 1.43049
                  }
                }
              }
              JOINT lIndex1
              {
                OFFSET 7.75947 0.938293 5.60832
                CHANNELS 3 Zrotation Xrotation Yrotation
                JOINT lIndex2
                {
                  OFFSET 2.54057 -0.884171 1.56538
                  CHANNELS 3 Zrotation Xrotation Yrotation
                  End Site
                  {
                    OFFSET 1.62519 -0.234802 1.16502
                  }
                }
              }
              JOINT lMid1
              {
                OFFSET 8.24714 1.18213 3.41376
                CHANNELS 3 Zrotation Xrotation Yrotation
                JOINT lMid2
                {
                  OFFSET 3.10165 -0.590103 1.0647
                  CHANNELS 3 Zrotation Xrotation Yrotation
                  End Site
                  {
                    OFFSET 2.48547 -0.328903 0.83742
                  }
                }
              }
              JOINT lRing1
              {
                OFFSET 8.82822 0.546677 1.51678
                CHANNELS 3 Zrotation Xrotation Yrotation
                JOINT lRing2
                {
                  OFFSET 2.60934 -0.819778 -0.0198488
                  CHANNELS 3 Zrotation Xrotation Yrotation
                  End Site
                  {
                    OFFSET 2.33842 -0.294052 0.168128
                  }
                }
              }
              JOINT lPinky1
              {
                OFFSET 8.27202 -0.0477905 -0.4584
                CHANNELS 3 Zrotation Xrotation Yrotation
                JOINT lPinky2
                {
                  OFFSET 1.82734 -0.647385 -0.700984
                  CHANNELS 3 Zrotation Xrotation Yrotation
                  End Site
                  {
                    OFFSET 1.69225 -0.51767 -0.607171
                  }
                }
              }
            }
          }
        }
      }
    }
  }
  JOINT rButtock
  {
    OFFSET -8.77824 4.35084 1.2192
    CHANNELS 3 Zrotation Xrotation Yrotation
    JOINT rThigh
    {
      OFFSET 0 -1.70687 -2.19456
      CHANNELS 3 Zrotation Xrotation Yrotation
      JOINT rShin
      {
        OFFSET 0 -36.8199 0.73152
        CHANNELS 3 Zrotation Xrotation Yrotation
        JOINT rFoot
        {
          OFFSET 0.73152 -45.1104 -5.12064
          CHANNELS 3 Zrotation Xrotation Yrotation
          End Site
          {
            OFFSET -1.1221 -3.69964 12.103
          }
        }
      }
    }
  }
  JOINT lButtock
  {
    OFFSET 8.77824 4.35084 1.2192
    CHANNELS 3 Zrotation Xrotation Yrotation
    JOINT lThigh
    {
      OFFSET 0 -1.70687 -2.19456
      CHANNELS 3 Zrotation Xrotation Yrotation
      JOINT lShin
      {
        OFFSET 0 -36.8199 0.73152
        CHANNELS 3 Zrotation Xrotation Yrotation
        JOINT lFoot
        {
          OFFSET -0.73152 -45.1104 -5.12064
          CHANNELS 3 Zrotation Xrotation Yrotation
          End Site
          {
            OFFSET 1.1221 -3.69964 12.103
          }
        }
      }
    }
  }
}
MOTION
Frames:	8
Frame Time:	0.00833333
-205.633 85.1237 16.5808 -0.330514 -0.0106499 0.00540066 0.435968 -0.0238513 0.0128199 0.121273 -0.0396248 0.0210491 1.06818e-015 7.95139e-016 1.86361e-017 3.44146e-015 3.18055e-015 7.76503e-017 -0 0 0 -0 0 0 7.43278e-016 -1.50253e-016 1.98785e-016 1.23571e-014 -3.32343e-015 7.95139e-016 1.9466e-013 -1.68172e-013 0 2.38338e-012 -4.71617e-013 3.18055e-014 5.58527e-012 -1.38145e-012 1.01778e-013 9.62555e-012 -2.38224e-012 1.70955e-013 5.58784e-012 -1.38354e-012 9.54166e-014 7.73091 5.47488 0.417314 5.5855e-012 -1.38225e-012 1.04958e-013 2.90554 0.965183 0.102902 5.58915e-012 -1.38165e-012 9.85972e-014 10.2786 0.731801 0.0259123 5.5767e-012 -1.37718e-012 9.85972e-014 2.22167 -0.733487 -0.20892 4.49463e-016 -1.49477e-016 -1.98785e-016 1.15129e-014 -2.83268e-015 -3.97569e-016 2.20055e-013 -3.79679e-014 -6.36111e-015 2.35064e-012 -5.71407e-013 6.04305e-014 5.58049e-012 -1.32253e-012 8.5875e-014 9.66213e-012 -2.28046e-012 1.65389e-013 5.5775e-012 -1.32391e-012 1.04958e-013 -7.73091 5.47488 -0.417314 5.57998e-012 -1.32281e-012 9.22361e-014 -2.90554 0.965183 -0.102902 5.57706e-012 -1.32281e-012 9.93923e-014 -10.2786 0.731801 -0.0259123 5.59022e-012 -1.31794e-012 9.54166e-014 -2.22167 -0.733487 0.20892 -2.03217e-016 0 -3.88251e-019 0.652033 -4.71109 -0.069479 -0.000844388 2.99806 0.00381614 -0.326428 1.72325 0.0697941 2.03217e-016 0 3.88251e-019 0.0331927 -2.68026 0.0231589 0.0057946 -0.679747 0.0505387 0.296105 3.3702 -0.0966719 
-197.34 83.5569 9.79327 -12.7334 -13.8758 23.6425 2.06918 -0.801976 0.79651 1.35153 -5.84306 0.571638 1.35065 -0.61314 0.906613 -2.98046 7.41714 2.86398 -0 0 0 -0 0 0 -4.73869e-015 6.95503e-013 -4.95867e-014 18.8328 15.2593 -5.30058 -6.10735 -3.29386 8.90866 0.0204931 -3.17858 -0.444246 2.25448e-009 3.6709e-010 -1.22386e-009 3.9014e-009 6.33778e-010 -2.10306e-009 2.25449e-009 3.67088e-010 -1.22386e-009 7.73091 5.47488 0.417314 2.25448e-009 3.67088e-010 -1.22385e-009 2.90554 0.965183 0.102902 2.25449e-009 3.6709e-010 -1.22386e-009 10.2786 0.731801 0.0259123 2.25448e-009 3.67094e-010 -1.22386e-009 2.22167 -0.733487 -0.20892 -4.99275e-015 6.95501e-013 -4.99151e-014 -21.4779 7.26306 5.14429 4.51554 -2.11401 -6.98418 -0.00517566 1.60785 -0.225654 7.15619e-011 7.58434e-010 2.22043e-009 1.38195e-010 1.30667e-009 3.84055e-009 7.15594e-011 7.58434e-010 2.22045e-009 -7.73091 5.47488 -0.417314 7.15654e-011 7.58432e-010 2.22043e-009 -2.90554 0.965183 -0.102902 7.15588e-011 7.58434e-010 2.22044e-009 -10.2786 0.731801 -0.0259123 7.15703e-011 7.58438e-010 2.22044e-009 -2.22167 -0.733487 0.20892 -2.03217e-016 0 -3.88251e-019 5.29792 -6.20403 8.06302 -0.00829477 3.65215 -0.0915034 0.240002 -4.42894 -7.91946 2.03217e-016 0 3.88251e-019 -0.641574 -3.16116 -7.77392 0.00889275 -0.776406 0.0662525 0.480047 -6.34289 3.70731 
-197.378 83.5345 9.77995 -14.3824 -20.5413 51.5024 3.81931 -1.62898 1.62432 2.78905 -11.9606 1.1745 2.80175 -1.26299 1.86677 -6.98607 15.1863 6.06044 -0 0 0 -0 0 0 -9.52206e-015 1.44703e-012 -1.03971e-013 42.2336 30.9398 -12.2723 -11.4745 -6.52074 18.4356 -0.0118258 -6.552 -0.920392 4.7097e-009 7.67265e-010 -2.56517e-009 8.15019e-009 1.32467e-009 -4.40801e-009 4.7097e-009 7.67264e-010 -2.56518e-009 7.73091 5.47488 0.417314 4.70969e-009 7.67261e-010 -2.56516e-009 2.90554 0.965183 0.102902 4.7097e-009 7.67265e-010 -2.56518e-009 10.2786 0.731801 0.0259123 4.70969e-009 7.67269e-010 -2.56517e-009 2.22167 -0.733487 -0.20892 -9.7358e-015 1.44702e-012 -1.04225e-013 -45.6469 14.7183 10.8572 8.7234 -4.23674 -14.3831 0.00323794 3.33005 -0.467969 1.36048e-010 1.59513e-009 4.65805e-009 2.65586e-010 2.74819e-009 8.05676e-009 1.36046e-010 1.59513e-009 4.65806e-009 -7.73091 5.47488 -0.417314 1.36056e-010 1.59512e-009 4.65805e-009 -2.90554 0.965183 -0.102902 1.36046e-010 1.59512e-009 4.65806e-009 -10.2786 0.731801 -0.0259123 1.36055e-010 1.59513e-009 4.65805e-009 -2.22167 -0.733487 0.20892 -2.03217e-016 0 -3.88251e-019 10.6688 -7.57977 16.7121 -0.0137201 4.34372 -0.192417 -1.02843 -10.5709 -16.6056 2.03217e-016 0 3.88251e-019 -1.49043 -3.59258 -16.0238 0.0121163 -0.878256 0.0817245 2.14411 -16.4531 8.0826 
-197.388 83.5306 9.75408 -12.2866 -14.9324 74.6722 5.3995 -2.35645 2.36566 4.16045 -17.4432 1.74413 4.11018 -1.83758 2.72108 -11.3049 22.0201 9.19602 -0 0 0 -0 0 0 -1.57026e-014 2.08681e-012 -1.49158e-013 67.6041 43.8924 -21.5361 -15.3422 -8.92769 27.0351 -0.0881407 -9.53343 -1.34933 6.75228e-009 1.10403e-009 -3.67178e-009 1.1685e-008 1.9061e-009 -6.30953e-009 6.75228e-009 1.10403e-009 -3.67178e-009 7.73091 5.47488 0.417314 6.75226e-009 1.10403e-009 -3.67176e-009 2.90554 0.965183 0.102902 6.75228e-009 1.10403e-009 -3.67178e-009 10.2786 0.731801 0.0259123 6.75227e-009 1.10404e-009 -3.67177e-009 2.22167 -0.733487 -0.20892 -1.58772e-014 2.0868e-012 -1.49348e-013 -68.5288 21.0624 16.4347 12.0317 -5.96589 -21.0576 0.0225813 4.82325 -0.679102 2.03525e-010 2.27795e-009 6.66112e-009 3.95262e-010 3.92457e-009 1.15213e-008 2.03523e-010 2.27795e-009 6.66113e-009 -7.73091 5.47488 -0.417314 2.03536e-010 2.27794e-009 6.66112e-009 -2.90554 0.965183 -0.102902 2.03522e-010 2.27795e-009 6.66113e-009 -10.2786 0.731801 -0.0259123 2.03531e-010 2.27795e-009 6.66112e-009 -2.22167 -0.733487 0.20892 -2.03217e-016 0 -3.88251e-019 15.8162 -8.54499 24.4741 -0.0166427 4.96027 -0.282633 -3.76509 -15.3864 -24.7706 2.03217e-016 0 3.88251e-019 -2.36521 -3.86586 -23.3887 0.0152481 -0.969723 0.097683 5.01706 -25.2777 12.4558 
-197.39 83.5174 9.75365 -12.5956 -5.09337 86.4338 6.50924 -2.83681 2.88908 5.1162 -21.3448 2.16372 5.02038 -2.22579 3.3096 -14.6888 26.736 11.6071 -0 0 0 -0 0 0 -2.53762e-014 2.44724e-012 -1.71352e-013 89.339 51.6975 -31.3 -17.549 -10.21 33.0163 -0.166086 -11.5371 -1.64394 7.76327e-009 1.28228e-009 -4.19159e-009 1.34347e-008 2.21389e-009 -7.20248e-009 7.76327e-009 1.28228e-009 -4.1916e-009 7.73091 5.47488 0.417314 7.76326e-009 1.28227e-009 -4.19157e-009 2.90554 0.965183 0.102902 7.76328e-009 1.28228e-009 -4.19159e-009 10.2786 0.731801 0.0259123 7.76327e-009 1.28228e-009 -4.19159e-009 2.22167 -0.733487 -0.20892 -2.55143e-014 2.44723e-012 -1.71501e-013 -85.2642 25.3123 20.734 14.1336 -7.06268 -25.8232 0.0406408 5.74426 -0.810045 2.78477e-010 2.5761e-009 7.57783e-009 5.30649e-010 4.43813e-009 1.31067e-008 2.78475e-010 2.5761e-009 7.57785e-009 -7.73091 5.47488 -0.417314 2.7849e-010 2.57609e-009 7.57783e-009 -2.90554 0.965183 -0.102902 2.78474e-010 2.5761e-009 7.57784e-009 -10.2786 0.731801 -0.0259123 2.78482e-010 2.5761e-009 7.57783e-009 -2.22167 -0.733487 0.20892 -2.03217e-016 0 -3.88251e-019 19.5667 -9.0295 29.9075 -0.0179382 5.3893 -0.345721 -6.53816 -18.1966 -30.7536 2.03217e-016 0 3.88251e-019 -3.0435 -3.95561 -28.5259 0.0180579 -1.03524 0.114856 7.7727 -31.4015 15.665 
-197.377 83.5076 9.73755 -13.2778 -0.261734 89.8411 6.93048 -2.95787 3.10747 5.34879 -23.0774 2.32199 5.359 -2.34961 3.5251 -15.8672 28.6684 12.565 -0 0 0 -0 0 0 -4.18986e-014 2.32792e-012 -1.55548e-013 99.3168 54.1665 -36.3583 -18.2502 -10.5423 35.1861 -0.196733 -12.1569 -1.73661 7.2199e-009 1.22993e-009 -3.80812e-009 1.2495e-008 2.12369e-009 -6.54271e-009 7.21991e-009 1.22993e-009 -3.80813e-009 7.73091 5.47488 0.417314 7.21989e-009 1.22993e-009 -3.8081e-009 2.90554 0.965183 0.102902 7.21991e-009 1.22993e-009 -3.80812e-009 10.2786 0.731801 0.0259123 7.2199e-009 1.22993e-009 -3.80811e-009 2.22167 -0.733487 -0.20892 -4.20006e-014 2.32791e-012 -1.5569e-013 -91.9689 27.1777 22.609 14.9859 -7.52162 -27.872 0.0441331 5.83058 -0.822445 3.95626e-010 2.2901e-009 6.82735e-009 7.27899e-010 3.94516e-009 1.18082e-008 3.95622e-010 2.2901e-009 6.82737e-009 -7.73091 5.47488 -0.417314 3.95637e-010 2.29009e-009 6.82735e-009 -2.90554 0.965183 -0.102902 3.95623e-010 2.2901e-009 6.82736e-009 -10.2786 0.731801 -0.0259123 3.95631e-010 2.2901e-009 6.82735e-009 -2.22167 -0.733487 0.20892 -2.03217e-016 0 -3.88251e-019 21.0313 -9.16444 32.0441 -0.0191392 5.54912 -0.370964 -7.8122 -19.1451 -33.1697 2.03217e-016 0 3.88251e-019 -3.36492 -3.91553 -30.5257 0.0203899 -1.05973 0.13402 8.65903 -34.1692 16.2724 
-197.362 83.508 9.66597 -13.1709 -0.790762 89.5049 6.85593 -2.82332 3.10761 5.03388 -23.2603 2.27757 5.2852 -2.28515 3.47395 -15.2394 28.6639 12.3469 -0 0 0 -0 0 0 -6.32198e-014 1.87013e-012 -1.12879e-013 98.6548 53.6193 -36.1049 -18.0307 -10.3599 34.6068 -0.183496 -11.7894 -1.68228 5.57152e-009 1.01329e-009 -2.78334e-009 9.64326e-009 1.74994e-009 -4.78057e-009 5.57153e-009 1.01329e-009 -2.78334e-009 7.73091 5.47488 0.417314 5.57151e-009 1.01328e-009 -2.78333e-009 2.90554 0.965183 0.102902 5.57153e-009 1.01329e-009 -2.78334e-009 10.2786 0.731801 0.0259123 5.57152e-009 1.01329e-009 -2.78333e-009 2.22167 -0.733487 -0.20892 -6.3286e-014 1.87013e-012 -1.13037e-013 -91.1377 27.5031 22.5496 15.0452 -7.59869 -27.9649 0.0361262 5.32234 -0.750243 5.41405e-010 1.58902e-009 4.89299e-009 9.66774e-010 2.73699e-009 8.46182e-009 5.41398e-010 1.58902e-009 4.893e-009 -7.73091 5.47488 -0.417314 5.41412e-010 1.58901e-009 4.89298e-009 -2.90554 0.965183 -0.102902 5.41401e-010 1.58902e-009 4.89299e-009 -10.2786 0.731801 -0.0259123 5.41411e-010 1.58902e-009 4.89298e-009 -2.22167 -0.733487 0.20892 -2.03217e-016 0 -3.88251e-019 20.8004 -9.13487 31.8191 -0.0207452 5.51696 -0.369103 -7.6788 -19.0416 -32.9171 2.03217e-016 0 3.88251e-019 -3.41656 -3.80975 -30.2852 0.0223574 -1.05514 0.154592 7.76541 -34.6345 14.7102 
-197.37 83.5095 9.58409 -12.7411 -3.4504 87.6275 6.599 -2.60972 3.01857 4.52873 -22.7596 2.15292 5.04001 -2.15284 3.31626 -13.917 27.8635 11.6596 -0 0 0 -0 0 0 -8.33266e-014 1.41883e-012 -6.87585e-014 93.6842 51.906 -33.6999 -17.4264 -9.95615 32.9275 -0.155537 -11.0536 -1.57367 3.65736e-009 7.44792e-010 -1.63288e-009 6.3314e-009 1.28657e-009 -2.80262e-009 3.65736e-009 7.4479e-010 -1.63289e-009 7.73091 5.47488 0.417314 3.65736e-009 7.44787e-010 -1.63288e-009 2.90554 0.965183 0.102902 3.65736e-009 7.44787e-010 -1.63288e-009 10.2786 0.731801 0.0259123 3.65735e-009 7.44789e-010 -1.63288e-009 2.22167 -0.733487 -0.20892 -8.33629e-014 1.41883e-012 -6.89414e-014 -87.2703 27.1684 21.6626 14.7852 -7.52062 -27.2532 0.0264403 4.63034 -0.652174 6.47865e-010 7.94888e-010 2.71913e-009 1.13611e-009 1.36845e-009 4.70125e-009 6.47855e-010 7.9489e-010 2.71915e-009 -7.73091 5.47488 -0.417314 6.47867e-010 7.94882e-010 2.71913e-009 -2.90554 0.965183 -0.102902 6.47861e-010 7.94882e-010 2.71913e-009 -10.2786 0.731801 -0.0259123 6.47872e-010 7.94885e-010 2.71912e-009 -2.22167 -0.733487 0.20892 -2.03217e-016 0 -3.88251e-019 19.909 -9.03454 30.6431 -0.0223099 5.41875 -0.35586 -6.98113 -18.5197 -31.5889 2.03217e-016 0 3.88251e-019 -3.34255 -3.65785 -29.1709 0.0241445 -1.04641 0.17526 6.20024 -34.107 12.3005 
